<svg width="375" height="812" viewBox="0 0 375 812" fill="none" xmlns="http://www.w3.org/2000/svg">
<g clip-path="url(#clip0_1147_8189)">
<rect width="375" height="812" fill="white"/>
<rect width="375" height="492" fill="#F95A2C"/>
<path fill-rule="evenodd" clip-rule="evenodd" d="M90.6132 300.962C99.0579 319.72 109.498 336.305 121.862 352.868C120.995 313.732 120.248 274.385 118.97 234.889C111.141 250.151 102.798 263.962 91.6616 279.113C82.9308 288.435 87.0017 292.305 90.6132 300.962ZM62.9291 758.834C61.9506 757.45 62.5298 755.691 63.8832 754.794C61.0013 748.586 69.6855 743.793 73.9599 739.12C83.6754 728.589 98.9808 713.494 100.343 700.197C104.977 670.03 107.625 639.756 115.044 609.943C119.452 591.006 131.69 575.812 137.159 557.211C146.668 508.051 134.383 458.751 136.507 409.101C109.706 406.475 113.177 409.814 116.048 387.541C114.254 386.297 112.507 384.979 110.874 383.652C106.595 385.933 101.544 391.525 96.8322 391.229C95.3409 390.881 94.2659 389.013 93.2428 387.409C85.6767 375.488 78.6433 363.836 71.7575 351.822C33.6791 291.833 42.2919 278.249 77.8106 220.744C92.7689 198.535 111.142 166.217 139.639 163.974C143.079 163.977 146.706 163.794 149.669 161.632C149.69 158.19 151.451 157.079 155.917 156.45C158.432 156.192 160.405 154.727 162.86 155.325C164.612 149.482 164.26 144.783 166.161 139.002C172.672 129.136 193.793 134.058 201.527 137.152C211.138 140.491 201.995 155.436 208.268 162.26C209.636 163.023 211.059 163.389 212.881 163.388C220.652 161.66 224.439 170.982 228.113 177.132C238.628 178.427 246.508 179.987 251.345 183.774C255.781 187.12 259.043 192.502 263.378 203.633C272.458 223.484 278.412 243.199 281.041 262.217C283.33 275.105 289.688 286.258 294.792 297.964C307.322 328.442 312.731 348.629 309.732 375.454C306.551 374.885 303.343 373.729 299.995 373.298L298.641 376.498C298.555 376.434 298.52 376.362 298.514 376.342C294.585 403.192 305.364 457.867 270.197 450.673C267.095 480.221 257.198 506.489 245.29 531.197C240.475 540.492 235.632 550.316 235.712 561.232L237.525 561.272C237.833 561.279 237.932 561.342 237.933 561.342C238.278 561.426 237.878 564.116 237.491 565.637C231.802 585.718 226.882 605.797 222.465 626.12C221.533 628.859 221.13 636.231 218.972 637.481C219.066 638.488 216.091 640.461 215.861 640.397C216.379 644.275 214.501 646.01 214.564 649.947C214.554 649.854 217.203 649.991 217.087 649.912C218.669 649.912 220.461 653.267 220.483 655.541C220.627 658.28 218.311 660.854 217.501 663.542C216.245 669.439 216.441 675.417 215.882 681.351C221.155 682.546 219.972 688.147 215.348 688.423C215.348 688.423 214.506 696.247 214.672 700.148C217.844 700.528 219.253 703.353 220.301 705.544C224.203 705.587 227.854 707.362 231.477 709.21C239.923 713.345 248.216 717.676 255.739 722.063C262.376 726.471 276.843 731.319 269.332 740.592C269.446 740.831 267.72 745.135 265.392 744.743C253.906 745.857 210.23 736.38 200.126 734.279C196.696 733.464 181.689 731.511 187.921 726.45C185.599 719.969 185.497 707.672 192.502 706.171C193.183 700.081 198.313 697.943 203.43 700.197C203.397 695.817 203.671 692.025 203.716 687.642C201.254 687.318 198.527 686.405 197.815 684.539C197.14 683.508 197.402 680.001 199.937 679.975C200.012 679.97 201.844 680.058 201.918 680.057C201.624 672.967 202.243 666.95 201.181 659.847C200.611 657.489 198.747 657.105 197.527 655.892C196.382 652.364 199.903 649.515 202.916 648.921C203.684 645.334 202.064 641.536 202.916 638.016C200.952 637.951 199.418 637.85 198.142 636.658C197.588 636.116 196.681 636.28 195.976 636.232C195.293 628.828 190.669 622.503 189.644 615.381C188.199 606.949 190.922 598.151 191.897 589.557C192.687 582.411 191.428 575.098 190.799 568.078C164.908 609.364 129.945 649.15 123.686 699.406C123.019 703.275 122.615 707.602 126.186 711.391L126.339 711.434C127.247 713.255 127.817 716.727 128.468 718.605C131.84 721.266 128.745 726.377 126.309 728.681C125.571 729.522 124.941 730.497 124.266 731.379C111.543 746.562 110.103 763.717 85.6792 762.559C79.6748 762.184 65.6245 762.375 62.9291 758.834Z" fill="white"/>
<path fill-rule="evenodd" clip-rule="evenodd" d="M165.156 141.692C167.217 140.285 164.283 152.418 164.277 153.576L164.225 153.831C163.711 156.301 162.807 159.173 160.724 160.753C161.685 168.608 162.88 176.44 164.351 184.212C177.474 185.922 190.684 188.392 204.031 187.146C210.996 187.206 215.624 182.487 218.472 176.607L218.558 176.429L217.971 174.326C209.045 168.852 202.279 157.757 206.304 147.288C206.565 146.607 207.653 146.881 207.415 147.592C205.726 152.318 206.435 157.646 208.834 161.986C210.333 162.784 211.929 162.728 213.535 162.68C221.282 161.547 225.731 170.335 229.065 175.815L231.984 176.247C243.15 177.905 253.921 179.867 259.434 191.301L259.938 192.372C267.74 208.968 275.029 226.04 279.278 243.922C281.394 253.335 282.16 263.034 285.264 272.217C291.708 289.263 300.79 305.281 305.715 322.928C308.77 329.164 317.354 377.433 308.886 377.593C305.836 376.68 302.728 375.943 299.588 375.416C300.072 375.784 300.249 376.411 300.157 377.053C299.061 384.736 298.978 392.519 298.984 400.265C299.432 418.866 299.371 458.173 271.653 453.173C269.38 475.917 261.621 497.919 252.996 518.973C247.872 532.544 237.933 544.924 237.434 559.832C240.868 559.883 239.536 564.248 239.114 566.353C237.959 571.506 236.456 576.58 234.936 581.633C229.578 599.762 226.378 618.498 221.79 636.835C221.542 637.718 221.125 638.319 220.592 638.723C220.501 640.631 217.617 641.726 215.986 641.092C216.215 643.4 216.152 645.737 216.184 648.053L216.191 648.486L216.69 648.481C218.865 647.922 221.064 651.441 221.677 653.248C223.742 658.303 218.955 662.01 218.598 666.826C218.274 671.397 217.843 675.929 217.646 680.513C223.615 682.842 220.975 690.642 215.125 690.561C215.399 693.407 215.436 696.27 215.556 699.121C218.099 699.787 220.006 701.93 221.258 704.167C226.398 704.518 231.091 707.555 235.671 709.706C242.754 713.201 249.721 716.931 256.555 720.892C263.21 725.319 278.018 730.345 271.545 740.584C273.174 741.988 272.036 744.738 270.551 745.885L270.5 745.924C269.024 747.078 267.073 747.078 265.259 746.891C244.192 747.418 221.994 740.878 201.045 736.608L199.463 736.326C194.877 735.506 190.183 734.587 186.109 732.351C184.385 730.948 183.963 727.526 185.727 726.144C183.919 719.606 185.55 708.126 192.705 705.597C193.554 700.748 197.478 697.271 202.469 698.751C202.494 695.645 202.746 692.577 202.802 689.471C200.328 689.005 198.045 688.046 196.852 685.697C195.54 683.356 196.961 679.433 199.943 679.559C200.044 674.723 199.771 669.968 199.731 665.14L199.727 664.849C199.711 663.285 199.774 661.56 199.111 660.122C198.429 658.641 196.616 658.495 195.811 657.091C194.048 653.309 197.578 648.867 201.219 647.849C201.676 645.317 201.439 642.636 201.898 640.079C199.959 639.966 198.307 639.516 196.903 638.416C195.933 638.266 194.216 638.698 194.106 637.306C193.711 631.616 190.84 626.55 189.032 621.243C185.297 610.921 188.686 600.142 189.984 589.702C190.596 584.378 189.951 579.031 189.406 573.694C164.764 612.267 133.155 649.565 125.852 696.1C125.447 701.338 123.307 705.647 127.067 710.166C128.328 710.531 129.405 716.453 129.892 717.944C133.742 721.506 130.387 727.862 127.036 730.616C125.432 733.385 123.286 735.81 121.278 738.29L120.631 739.374C116.377 746.483 111.838 753.612 106.07 759.569C96.3758 766.756 80.1082 764.711 68.6899 763.417L67.6749 763.252C65.2966 762.855 62.6638 762.275 61.2951 760.159C60.1063 758.325 60.2654 755.945 61.7434 754.569C60.2767 750.345 63.6186 746.197 66.7611 743.603C78.9435 732.81 89.4444 720.115 97.6219 706.045C100.756 683.293 103.975 660.543 107.461 637.843C110.274 619.058 114.559 600.252 123.606 583.398L125.824 579.184C129.575 572.045 133.17 564.923 135.307 557.054C140.289 538.513 139.096 519.097 138.406 500.117C137.518 470.486 135.405 440.849 135.681 411.196C130.1 410.611 114.971 410.971 112.588 405.24C111.808 399.778 113.638 394.221 114.051 388.766C112.873 387.94 111.723 387.075 110.604 386.182C108.529 387.73 106.387 389.191 104.187 390.549C98.9242 394.336 94.8545 394.941 91.5973 388.717C82.1733 373.827 73.081 358.723 64.5016 343.33C56.5443 328.565 46.6815 313.824 44.6618 296.826C41.7258 266.228 77.64 217.257 95.6214 192.396C106.671 179.034 120.966 164.803 139.224 163.756L139.779 163.729C142.228 163.606 145.786 163.874 147.827 162.219C148.213 156.695 153.883 156.723 158.099 155.81C158.972 155.144 160.297 154.987 161.413 155.04C162.926 150.697 163.27 145.895 165.156 141.692ZM113.096 709.985C108.471 707.58 102.953 707.385 98.0879 709.291C92.055 720.466 84.328 730.666 75.5539 739.829C72.3482 744.3 60.3151 750.195 66.3174 756.229L67.1301 756.378C76.3442 758.055 85.6992 759.375 95.0881 758.619C101.223 756.922 106.174 752.377 110.076 747.469C114.919 741.191 118.921 734.284 123.352 727.71C127.33 720.971 129.427 720.88 126.308 712.876C126.302 713.032 126.264 713.19 126.185 713.352C125.083 715.573 121.702 715.368 119.794 714.531C117.306 713.438 115.498 711.251 113.096 709.985ZM69.3996 758.302L69.5393 758.366L69.6811 758.43L69.8885 758.433L69.3996 758.302ZM244.762 718.069C237.901 715.002 225.331 706.063 218.322 707.421C213.147 709.004 208.375 711.835 202.858 712.245L202.621 712.253C198.683 712.421 191.684 713.735 190.205 709.105C188.246 712.846 187.601 717.479 187.631 721.713C187.549 725.321 189.202 728.175 193.038 728.468L196.59 729.361C219.096 735.008 241.812 740.4 265.005 742.071C271.093 738.27 271.243 733.274 264.788 729.803C258.269 725.638 251.56 721.757 244.762 718.069ZM112.207 630.909C108.176 656.121 105.47 681.476 101.567 706.7C115.191 703.296 119.192 715.507 124.264 712.101C120.716 707.433 121.141 703.917 122.192 698.485C124.274 680.189 131.09 662.784 139.541 646.539C140.504 644.684 141.492 642.84 142.494 641C131.627 641.991 119.93 638.893 112.207 630.909ZM196.137 702.803C195.204 704.251 194.834 705.996 194.536 707.669C194.383 708.534 194.467 709.808 194.16 710.778C200.006 710.955 205.885 709.593 211.153 707.086L210.896 707.069C206.602 706.805 197.73 707.408 196.137 702.803ZM192.502 706.534C191.934 706.938 191.442 707.406 191.017 707.925C190.873 708.731 191.29 709.609 191.967 710.11C192.102 708.93 192.267 707.706 192.502 706.534ZM203.922 689.653C203.94 693.303 204.162 696.899 204.122 700.544C204.116 701.808 204.491 703.405 203.717 704.479L204.947 704.609C208.031 704.93 211.176 705.195 214.258 704.845C214.357 700.099 214.36 695.33 214.672 690.589C210.872 690.564 207.663 689.925 203.922 689.653ZM215.696 704.185C215.691 704.33 215.688 704.484 215.694 704.627C216.137 704.545 216.577 704.446 217.013 704.33C216.655 704.294 216.29 704.355 215.937 704.233C215.856 704.221 215.773 704.211 215.696 704.185ZM202.423 703.617C202.034 704.058 201.275 704.137 200.795 703.845C200.697 703.862 200.6 703.875 200.497 703.88C200.469 703.883 200.438 703.88 200.41 703.88L200.744 703.964C201.44 704.136 201.979 704.247 202.693 704.349C202.567 704.121 202.483 703.875 202.423 703.617ZM218.417 703.599C218.327 703.765 218.204 703.903 218.053 704.018L218.397 703.903C218.455 703.883 218.512 703.863 218.568 703.842C218.522 703.757 218.471 703.678 218.417 703.599ZM198.266 702.596C198.33 702.746 198.475 702.977 198.64 703.1C198.494 702.949 198.365 702.78 198.266 702.596ZM215.599 700.247C215.602 700.334 215.604 700.421 215.61 700.511C215.657 700.461 215.712 700.416 215.779 700.385C215.717 700.34 215.656 700.293 215.599 700.247ZM199.926 680.36C197.06 681.289 198.064 684.884 200.233 686.063C202.592 687.618 206.155 687.375 208.863 687.608C211.635 687.667 214.843 688.793 217.339 687.175C218.64 686.299 218.652 684.307 217.275 683.54C217.249 683.602 217.221 683.66 217.193 683.719C217.211 683.86 217.198 684.019 217.136 684.205C215.564 687.032 205.699 685.399 203.197 683.998L203.004 683.914C201.309 683.194 199.721 682.86 199.926 680.36ZM203.43 638.772C204.05 641.552 203.847 644.446 204.239 647.235C204.485 648.044 204.17 648.581 203.665 648.857C206.921 649.83 210.202 650.313 213.593 649.556C213.226 646.296 214.153 642.663 214.623 639.386L203.43 638.772ZM215.86 639.455C215.915 639.871 215.908 640.325 215.955 640.757C215.962 640.747 215.969 640.738 215.977 640.729L215.991 640.716C216.401 640.361 216.772 639.905 217.164 639.511C216.734 639.502 216.294 639.478 215.86 639.455ZM198.886 555.089C196.811 560.032 194.47 564.839 191.844 569.521L191.951 570.627C192.646 577.876 193.168 585.133 191.991 592.368L191.881 592.988C190.066 603.127 187.805 613.683 192.206 623.495L192.406 624.009C193.978 628.038 195.633 632.035 196.058 636.362C203.21 636.873 210.385 637.587 217.546 637.838C219.398 638.153 220.299 637.095 220.464 635.356C226.051 611.95 230.952 588.382 237.006 565.092L237.069 564.973C237.726 563.718 238.218 562.274 236.998 561.835C234.698 561.434 232.442 563.893 230.257 564.521C218.53 569.144 209.648 556.865 198.886 555.089ZM198.609 564.622C205.73 575.157 201.855 591.16 201.037 603.672C200.432 608.279 201.143 612.999 200.66 617.582C200.594 617.94 200.028 618.007 199.871 617.684C198.193 613.463 198.882 608.608 199.029 604.166C200.076 591.028 203.043 577.465 198.609 564.622ZM219.427 420.34C219.4 420.168 219.159 420.23 219.144 420.378C219.067 451.978 217.082 483.485 213.941 514.927C213.897 515.608 215.013 515.769 215.144 515.089C217.403 503.412 218.315 491.513 219.08 479.654L219.166 478.312C220.161 462.383 220.476 446.412 220.049 430.457C219.956 427.105 219.942 423.659 219.427 420.34ZM284.004 374.316C283.728 374.643 283.426 374.84 283.118 374.94C283.12 382.324 281.63 389.59 277.545 395.986C275.751 398.357 274.787 401.095 273.927 403.912C274.174 404.677 273.864 405.556 273.287 405.997C269.511 417.471 269.122 429.759 270.515 441.678C274.762 435.451 276.446 428.016 277.634 420.688C277.698 420.32 278.307 420.325 278.374 420.688C279.783 428.526 277.395 436.35 274.312 443.51C272.601 444.957 272.969 448.235 272.769 450.285C304.07 454.84 293.184 394.745 297.194 376.237C297.268 375.725 297.701 375.357 298.192 375.199C293.497 374.485 288.741 374.431 284.004 374.316ZM157.364 157.13L156.822 157.267C151.11 158.693 149.597 158.726 149.233 165.44C147.812 174.913 142.564 183.186 140.205 192.348C139.261 195.584 140.257 201.547 144.733 200.676C146.183 200.231 147.313 202.183 146.216 203.221C142.976 206.284 139.831 209.444 136.667 212.586C149.37 255.466 165.873 297.233 185.973 337.192C186.77 338.776 184.38 340.172 183.589 338.584C163.603 298.496 146.984 256.742 134.085 213.852L133.695 212.552C133.126 210.974 140.409 205.315 141.736 203.467C128.454 197.071 146.951 174.671 147.492 163.905C143.645 165.409 139.381 164.894 135.366 165.55C127.65 166.899 120.879 171.363 114.86 176.17C90.4127 197.762 74.7866 227.655 59.1576 255.829C48.5131 274.218 43.3829 296.687 54.0636 316.243C66.4561 341.314 80.8368 365.482 96.0339 388.943C97.7058 391.111 100.271 388.619 102.03 387.704C112.14 381.63 120.906 373.364 127.648 363.698C109.97 341.535 93.5247 317.318 84.3607 290.351C83.6286 283.79 92.8241 276.191 96.1802 270.489C103.59 260.266 110.512 249.696 117.123 238.946C116.915 237.883 117.354 236.718 118.48 236.748L119.135 235.657C124.183 227.265 124.745 226.94 119.733 237.206C122.276 275.076 121.853 313.677 122.953 351.788C125.927 355.723 128.988 359.594 132.12 363.404C142.283 356.402 154.237 351.833 166.514 350.419L167.144 350.356C172.34 349.825 181.128 348.717 181.819 355.56C180.892 363.936 163.788 359.181 158.258 363.933C167.278 367.566 177.617 368.594 185.899 374.075C188.555 375.621 193.763 380.566 188.675 382.454C186.455 382.646 184.163 381.778 181.944 381.592C184.44 382.431 186.737 383.859 188.199 386.093C189.252 387.625 190.02 390.802 187.505 391.46C181.77 391.616 176.06 389.757 170.412 388.82L170.914 389.024C175.033 390.713 181.43 393.736 175.886 398.205C170.334 401.076 163.613 396.189 158.084 394.882C143.183 391.423 132.175 400.915 116.902 390.634C116.474 395.162 115.103 399.821 115.524 404.355C119.198 407.789 130.63 407.675 135.745 408.129L135.739 407.954C135.665 405.171 136.406 405.455 136.546 408.162C149.494 408.559 162.471 408.318 175.392 407.389C180.937 406.98 186.472 406.428 191.986 405.711L193.02 405.575C195.853 405.197 198.814 404.946 201.596 404.27C204.442 403.889 204.445 400.851 204.144 398.621C200.237 316.161 166.742 238.625 157.364 157.13ZM210.01 163.941C210.668 164.918 211.398 165.852 212.187 166.735C213.401 164.856 216.357 163.792 217.198 166.597C218.145 169.479 219.498 172.44 219.538 175.495C238.898 238.648 239.39 305.802 239.013 371.309C239.592 381.701 236.372 391.87 236.67 402.206C247.274 403.731 258.033 403.861 268.681 402.733C268.996 401.906 269.352 401.09 269.755 400.292C285.693 380.85 277.244 356.48 269.567 335.419C264.926 335.611 260.257 335.322 255.612 335.375C257.046 339.821 257.418 344.523 258.181 349.119C258.701 352.395 259.365 355.645 260.128 358.872L260.332 359.732C260.62 360.922 261.001 362.206 260.584 363.386C260.174 364.55 258.76 365.021 257.822 364.115C256.133 362.187 256.314 359.314 255.768 356.92L255.667 356.168C254.737 349.307 253.512 342.178 255.212 335.375C253.542 335.012 248.981 336.334 248.741 334.088C248.812 330.382 246.124 322.345 249.116 319.902C250.896 318.543 253.957 318.973 256.045 318.889C258.458 318.791 260.868 318.702 263.278 318.717C243.907 271.878 249.295 257.455 251.26 210.838L251.319 209.416C251.314 209.111 251.808 209.034 251.862 209.344C254.824 228.438 250.876 247.773 252.746 266.925C256.068 303.323 279.114 334.569 282.969 370.79C291.28 369.828 299.685 371.007 307.741 373.098C307.91 371.627 308.04 370.15 308.133 368.671C309.661 341.639 300.182 315.378 289.119 291.134C282.49 278.257 278.392 264.525 276.678 250.16C273.347 231.453 265.875 213.828 258.426 196.453C253.719 183.455 243.539 180.392 230.916 178.882C235.174 185.944 239.405 193.021 243.629 200.103C244.573 202.243 241.684 203.776 240.422 205.092C255.928 213.558 246.874 239.681 247.195 254.327C246.044 267.777 245.61 281.314 243.581 294.672C243.432 295.596 242.013 295.327 242 294.457C242.187 274.439 244.573 254.498 245.619 234.514L245.747 233.057C246.563 223.595 247.36 209.944 235.991 207.346C234.457 207.098 234.339 204.815 235.571 204.13C237.21 203.216 238.647 202.098 239.933 200.773C233.446 190.346 227.788 179.369 220.962 169.173L220.677 168.81C216.121 163.038 216.438 165.125 210.01 163.941ZM178.676 355.052C177.415 351.356 165.251 353.766 161.998 354.165C150.015 356.432 137.955 361.738 128.829 369.91C128.265 370.414 127.6 370.406 127.074 370.132C122.983 375.357 118.267 380.092 113.088 384.255C114.036 385 115.01 385.726 116.011 386.417C116.49 386.468 116.923 386.717 117.118 387.164C131.362 397.488 141.843 389.434 156.639 391.297C162.164 392.409 167.252 395.926 172.945 396.073C177.123 395.123 173.444 393.375 171.493 392.698C165.896 390.025 160.161 387.653 154.444 385.251C152.669 384.506 153.279 381.822 155.261 382.29C158.732 383.109 162.213 383.889 165.696 384.652C172.395 386.023 179.254 387.777 186.025 388.439C184.521 384.256 168.55 379.731 163.911 378.072C162.156 377.238 157.156 377.402 157.728 374.679C158.189 372.152 163.513 375.046 165.284 375.255C172.527 377.089 179.918 378.209 187.297 379.325C179.37 371.371 167.085 370.68 156.962 366.957L156.627 366.88C154.853 366.459 152.483 365.68 153.836 363.699L153.881 363.634C159.087 355.957 179.543 359.849 178.676 355.052ZM163.698 312.331C167.387 309.291 169.369 315.528 169.133 318.42C169.308 320.82 169.495 323.223 169.651 325.625C169.422 327.506 171.423 334.352 168.747 334.413C157.05 333.824 145.373 333.965 133.672 333.267C133.657 335.626 133.541 337.985 133.662 340.352C133.599 343.306 134.625 346.263 134.026 349.181C133.66 350.527 131.833 350.706 131.12 349.56C128.982 344.529 130.453 338.04 131.966 332.95C123.128 330.703 127.387 323.582 127.389 317.361C127.376 317.197 127.54 317.113 127.673 317.144C129.864 320.205 127.011 324.291 128.262 327.621C129.556 331.26 135.046 330.926 138.149 330.986L138.242 330.988C147.903 331.155 157.557 331.553 167.218 331.74C166.805 328.485 166.693 325.152 166.444 321.897C166.131 319.562 166.583 316.789 165.394 314.695C160.022 316.439 154.429 317.137 148.782 317.026C142.051 317.208 134.972 317.816 128.393 317.01C137.828 315.554 148.251 315.765 157.865 313.917C159.776 313.422 161.726 312.42 163.698 312.331ZM117.259 242.075C111.438 253.184 104.748 263.761 97.6198 274.056C96.0931 276.256 94.5255 278.426 92.9325 280.58L92.6377 280.957C89.4548 285.002 86.1489 288.358 89.1566 293.726C97.0394 312.876 107.588 330.862 119.812 347.554L119.603 337.964C118.91 305.998 118.254 274.031 117.259 242.075ZM263.494 319.28C248.884 322.348 248.605 316.604 251.045 332.848C256.907 332.887 262.765 332.755 268.628 332.85C266.952 328.314 265.216 323.798 263.494 319.28ZM219.626 180.369C216.33 186.036 210.856 189.675 204.263 189.728C192.695 190.392 180.973 189.63 169.7 186.888C168.043 186.471 166.063 186.113 164.536 185.207C173.228 232.342 187.299 278.262 197.196 325.126L197.521 326.671L197.79 326.618C204.527 325.422 211.856 325.919 218.784 325.494C224.341 325.414 229.955 326.009 235.474 325.182L235.302 319.357C233.91 272.732 231.968 225.549 219.626 180.369ZM214.793 166.896C214.181 166.887 213.245 167.252 212.621 167.208C213.892 168.567 215.298 169.792 216.778 170.859C216.101 169.59 215.572 168.068 214.793 166.896Z" fill="black"/>
<path fill-rule="evenodd" clip-rule="evenodd" d="M234.704 103.507C234.602 97.7758 234.489 91.9296 233.636 86.2539C232.802 80.705 230.508 75.6894 226.565 71.66C218.191 63.1011 206.052 61.0105 194.753 59.0947L175.434 55.8191C169.54 54.82 163.253 53.223 157.298 54.6399C154.364 55.3381 151.872 56.9602 149.594 58.8793C147.399 60.7291 145.039 62.7155 143.552 65.2041C142.062 67.6964 141.549 70.6097 141.065 73.4284C140.518 76.6063 140.094 79.809 139.792 83.0194C139.188 89.4515 139.106 95.9319 139.544 102.377C139.756 105.503 140.094 108.621 140.525 111.724C140.739 113.263 140.981 114.798 141.254 116.328C141.335 116.779 141.396 117.278 141.478 117.783C140.869 119.514 140.523 121.307 140.551 123.092C140.633 128.35 145.076 131.66 149.556 133.438C152.153 134.468 154.869 135.169 157.421 136.32C160.105 137.531 161.933 139.494 163.768 141.734C167.269 146.005 171.22 149.843 175.731 153.046C185.295 159.837 197.409 163.048 209.013 160.611C211.797 160.026 214.606 159.117 217.109 157.749C219.752 156.304 221.739 154.211 223.407 151.735C226.505 147.14 228.727 141.965 230.408 136.7C232.122 131.328 233.339 125.947 234.003 120.347C234.664 114.764 234.804 109.125 234.704 103.507Z" fill="white"/>
<path fill-rule="evenodd" clip-rule="evenodd" d="M173.056 35.8536C181.05 34.7552 192.084 38.3251 196.066 45.5231C215.074 41.0473 239.047 40.9007 254.714 55.8006C271.061 73.4752 250.528 96.7792 236.913 102.033C237.904 106.845 236.359 137.671 225.422 151.421C216.743 163.072 196.531 168.448 187.178 154.533L187.105 154.418C186.103 152.811 186.966 152.863 187.995 154.058C197.153 162.102 209.605 162.24 219.201 153.75C237.185 138.233 235.33 100.186 226.773 78.1746C202.405 75.5015 176.316 82.8784 159.485 101.2L160.623 108.043C160.817 109.209 161.038 110.374 161.206 111.544C161.313 112.293 161.325 113.039 160.805 113.646C159.088 115.649 156.195 112.639 153.814 111.441C153.111 111.343 152.407 111.305 151.716 111.353C140.277 112.825 142.531 134.989 155.103 131.104C156.16 130.447 157.067 130.647 157.477 131.601C160.474 134.343 162.45 139.233 167.428 143.942C169.185 145.709 170.784 147.187 172.76 148.604C173.92 149.776 177.422 150.972 176.312 152.978C174.213 157.543 161.833 143.204 159.644 139.238C152.786 141.943 145.186 141.024 138.079 140.363C100.587 138.416 105.592 98.9411 136.324 74.0186C142.108 69.7649 148.491 66.2948 155.125 63.6245C156.031 63.2599 155.635 61.7744 154.717 62.1441C150.327 63.9113 146.048 66.0146 141.968 68.449L141.962 66.9936C141.956 64.5422 141.994 61.9901 142.421 59.7504C142.634 58.1984 142.992 56.5408 143.544 55.2938C144.226 51.4706 154.911 38.3476 173.056 35.8536ZM151.216 116.442C151.794 115.892 152.875 116.547 153.39 116.531C154.708 116.711 155.96 117.267 156.937 117.953C157.582 118.314 158.033 118.653 158.411 118.964L158.421 118.962C158.418 118.962 158.415 118.964 158.412 118.965L158.447 118.989C158.997 119.379 161.01 121.577 159.738 120.986C159.643 120.863 159.546 120.745 159.448 120.629C159.438 120.644 159.423 120.66 159.406 120.675L159.477 120.781C160.558 122.405 158.692 120.694 158.405 120.24C158.392 120.251 158.376 120.258 158.361 120.266L158.735 120.721C158.787 120.785 158.828 120.837 158.862 120.88L158.941 120.956C160.191 122.183 160.23 123.287 158.778 121.473C158.835 121.559 158.881 121.649 158.887 121.73L158.973 121.839C160.113 123.306 159.186 122.785 158.62 122.159L158.572 122.105L158.582 122.119C159.109 122.93 158.064 122.361 157.879 121.927L157.871 121.908C157.67 121.744 157.546 121.56 157.503 121.513L157.496 121.505C156.515 120.503 155.095 119.654 153.888 119.268C153.713 119.235 153.536 119.208 153.357 119.189C152.632 119.028 151.898 118.917 151.157 118.857C151.066 118.846 150.974 118.78 150.906 118.694C149.785 118.656 150.131 118.197 150.596 118.112L150.604 118.111L150.512 118.103C149.792 118.033 149.301 117.775 150.028 117.617L150.12 117.598C150.109 117.581 150.099 117.563 150.089 117.545C149.467 117.477 149.873 116.872 150.219 117.019C150.073 116.543 150.738 116.781 150.821 116.71C150.885 116.64 150.963 116.578 151.009 116.575C151.209 116.433 151.112 116.446 151.216 116.442ZM155.028 108.749L154.882 108.835C154.764 108.903 154.642 108.949 154.52 108.976C154.692 109.049 154.862 109.128 155.031 109.213C155.028 109.11 155.026 109.006 155.026 108.904L155.028 108.749Z" fill="black"/>
<path fill-rule="evenodd" clip-rule="evenodd" d="M214.894 136.454L215.071 136.413C216.486 136.08 217.848 135.626 219.166 136.502C220.422 137.337 220.596 138.88 219.618 140.006C218.612 141.163 217.276 141.098 215.866 141.114L215.778 141.115C214.607 141.131 213.417 141.114 212.25 141.01C211.163 140.914 210.069 140.759 208.994 140.556L208.358 140.432C207.709 140.301 207.069 140.13 206.735 139.502C206.151 138.408 210.488 137.549 211.015 137.399C212.294 137.034 213.597 136.747 214.894 136.454ZM217.3 123.26C216.608 123.976 215.695 124.465 214.67 124.769C212.093 125.535 208.806 125.127 206.702 124.347C206.265 124.185 205.857 123.856 205.623 123.444C205.409 123.067 205.336 122.624 205.499 122.172C205.546 122.044 205.602 121.918 205.659 121.794C205.813 121.457 206.128 121.194 206.497 121.044C206.881 120.888 207.317 120.856 207.667 120.966C207.714 120.981 207.763 120.996 207.812 121.012C209.145 121.431 211.332 122.127 213.144 121.992C214.231 121.911 215.187 121.527 215.682 120.534C215.942 120.01 215.87 119.492 215.639 119.017C215.29 118.302 214.592 117.679 214.004 117.25C213.175 116.646 212.291 116.404 211.376 116.149C211.031 116.053 210.682 115.956 210.33 115.839C210.214 115.801 210.112 115.726 210.036 115.628C209.961 115.532 209.911 115.414 209.896 115.295C209.88 115.173 209.899 115.051 209.956 114.945C210.009 114.848 210.093 114.762 210.219 114.705C212.009 113.905 214.323 114.434 216.07 115.694C216.943 116.323 217.672 117.132 218.12 118.036C218.537 118.875 218.714 119.795 218.551 120.733C218.368 121.784 217.923 122.614 217.3 123.26ZM187.971 105.391C188.474 105.17 188.887 106.206 188.99 106.488L189.204 107.074C189.554 108.019 189.954 108.98 190.688 109.681C191.303 110.268 192.288 110.766 193 110.079C193.677 109.427 193.347 108.693 193.447 107.894C193.627 106.448 195.601 105.002 196.788 106.511C199.469 109.921 195.32 114.662 191.499 113.83C189.556 113.407 187.991 111.851 187.349 110L187.316 109.902C186.931 108.73 186.542 106.021 187.971 105.391ZM222.572 107.766L222.554 107.722C221.277 104.821 225.832 103.574 226.219 106.179L226.243 106.355C226.619 109.247 225.827 113.136 222.281 113.425C218.3 113.749 216.642 109.312 216.997 106.056C217.061 105.473 217.769 105.393 217.988 105.922L218.034 106.038C218.677 107.674 219.288 110.821 221.552 110.818C223.066 110.815 222.993 108.775 222.572 107.766ZM225.461 99.366C227.749 99.2849 227.746 102.862 225.461 102.916C217.827 103.095 210.187 103.334 202.551 103.375L201.163 103.383C193.991 103.431 186.793 103.529 179.642 102.928C179.031 102.877 179.145 102.02 179.655 102.055C187.153 100.989 194.742 100.677 202.297 100.272C210.011 99.8588 217.74 99.6397 225.461 99.366Z" fill="black"/>
<g filter="url(#filter0_d_1147_8189)">
<path d="M1 488C1 479.716 7.71573 473 16 473H359C367.284 473 374 479.716 374 488V811H1V488Z" fill="white"/>
<path d="M1 488C1 479.716 7.71573 473 16 473H359C367.284 473 374 479.716 374 488V811H1V488Z" stroke="#18191F" stroke-width="2"/>
<path d="M29.832 513L24.384 496.2H29.28L33.864 510.744H31.392L36.216 496.2H40.584L45.144 510.744H42.768L47.496 496.2H52.032L46.584 513H41.496L37.608 500.64H38.976L34.92 513H29.832ZM59.3738 513.216C57.8378 513.216 56.4938 512.928 55.3418 512.352C54.2058 511.76 53.3178 510.96 52.6777 509.952C52.0538 508.928 51.7418 507.768 51.7418 506.472C51.7418 505.176 52.0458 504.024 52.6538 503.016C53.2778 501.992 54.1338 501.2 55.2218 500.64C56.3098 500.064 57.5338 499.776 58.8938 499.776C60.1738 499.776 61.3418 500.04 62.3978 500.568C63.4538 501.08 64.2938 501.84 64.9178 502.848C65.5418 503.856 65.8538 505.08 65.8538 506.52C65.8538 506.68 65.8458 506.864 65.8298 507.072C65.8138 507.28 65.7978 507.472 65.7818 507.648H55.4858V505.248H63.3578L61.6298 505.92C61.6458 505.328 61.5338 504.816 61.2938 504.384C61.0698 503.952 60.7498 503.616 60.3338 503.376C59.9338 503.136 59.4618 503.016 58.9178 503.016C58.3738 503.016 57.8938 503.136 57.4778 503.376C57.0778 503.616 56.7658 503.96 56.5418 504.408C56.3178 504.84 56.2058 505.352 56.2058 505.944V506.64C56.2058 507.28 56.3338 507.832 56.5898 508.296C56.8618 508.76 57.2458 509.12 57.7418 509.376C58.2378 509.616 58.8298 509.736 59.5178 509.736C60.1578 509.736 60.7018 509.648 61.1498 509.472C61.6138 509.28 62.0698 508.992 62.5178 508.608L64.9178 511.104C64.2938 511.792 63.5258 512.32 62.6138 512.688C61.7018 513.04 60.6218 513.216 59.3738 513.216ZM67.9562 513V495.192H72.5162V513H67.9562ZM82.1276 513.216C80.6876 513.216 79.3996 512.928 78.2636 512.352C77.1436 511.776 76.2636 510.984 75.6236 509.976C74.9836 508.952 74.6636 507.784 74.6636 506.472C74.6636 505.16 74.9836 504 75.6236 502.992C76.2636 501.984 77.1436 501.2 78.2636 500.64C79.3996 500.064 80.6876 499.776 82.1276 499.776C83.5996 499.776 84.8716 500.088 85.9436 500.712C87.0156 501.336 87.7756 502.216 88.2236 503.352L84.6956 505.152C84.3916 504.544 84.0156 504.104 83.5676 503.832C83.1196 503.544 82.6316 503.4 82.1036 503.4C81.5756 503.4 81.0956 503.52 80.6636 503.76C80.2316 504 79.8876 504.352 79.6316 504.816C79.3916 505.264 79.2716 505.816 79.2716 506.472C79.2716 507.144 79.3916 507.712 79.6316 508.176C79.8876 508.64 80.2316 508.992 80.6636 509.232C81.0956 509.472 81.5756 509.592 82.1036 509.592C82.6316 509.592 83.1196 509.456 83.5676 509.184C84.0156 508.896 84.3916 508.448 84.6956 507.84L88.2236 509.64C87.7756 510.776 87.0156 511.656 85.9436 512.28C84.8716 512.904 83.5996 513.216 82.1276 513.216ZM96.3279 513.216C94.9039 513.216 93.6399 512.928 92.5359 512.352C91.4319 511.776 90.5599 510.984 89.9199 509.976C89.2959 508.952 88.9839 507.784 88.9839 506.472C88.9839 505.16 89.2959 504 89.9199 502.992C90.5599 501.984 91.4319 501.2 92.5359 500.64C93.6399 500.064 94.9039 499.776 96.3279 499.776C97.7519 499.776 99.0159 500.064 100.12 500.64C101.24 501.2 102.112 501.984 102.736 502.992C103.36 504 103.672 505.16 103.672 506.472C103.672 507.784 103.36 508.952 102.736 509.976C102.112 510.984 101.24 511.776 100.12 512.352C99.0159 512.928 97.7519 513.216 96.3279 513.216ZM96.3279 509.592C96.8559 509.592 97.3199 509.472 97.7199 509.232C98.1359 508.992 98.4639 508.64 98.7039 508.176C98.9439 507.696 99.0639 507.128 99.0639 506.472C99.0639 505.816 98.9439 505.264 98.7039 504.816C98.4639 504.352 98.1359 504 97.7199 503.76C97.3199 503.52 96.8559 503.4 96.3279 503.4C95.8159 503.4 95.3519 503.52 94.9359 503.76C94.5359 504 94.2079 504.352 93.9519 504.816C93.7119 505.264 93.5919 505.816 93.5919 506.472C93.5919 507.128 93.7119 507.696 93.9519 508.176C94.2079 508.64 94.5359 508.992 94.9359 509.232C95.3519 509.472 95.8159 509.592 96.3279 509.592ZM122.728 499.776C123.736 499.776 124.632 499.984 125.416 500.4C126.216 500.8 126.84 501.424 127.288 502.272C127.752 503.12 127.984 504.216 127.984 505.56V513H123.424V506.304C123.424 505.376 123.248 504.704 122.896 504.288C122.544 503.856 122.064 503.64 121.456 503.64C121.024 503.64 120.632 503.744 120.28 503.952C119.928 504.16 119.656 504.48 119.464 504.912C119.272 505.328 119.176 505.872 119.176 506.544V513H114.616V506.304C114.616 505.376 114.44 504.704 114.088 504.288C113.752 503.856 113.272 503.64 112.648 503.64C112.2 503.64 111.8 503.744 111.448 503.952C111.112 504.16 110.84 504.48 110.632 504.912C110.44 505.328 110.344 505.872 110.344 506.544V513H105.784V499.992H110.128V503.616L109.264 502.584C109.744 501.656 110.4 500.96 111.232 500.496C112.064 500.016 112.992 499.776 114.016 499.776C115.184 499.776 116.208 500.08 117.088 500.688C117.984 501.28 118.584 502.208 118.888 503.472L117.4 503.16C117.864 502.104 118.56 501.28 119.488 500.688C120.432 500.08 121.512 499.776 122.728 499.776ZM137.843 513.216C136.307 513.216 134.963 512.928 133.811 512.352C132.675 511.76 131.787 510.96 131.146 509.952C130.523 508.928 130.211 507.768 130.211 506.472C130.211 505.176 130.515 504.024 131.123 503.016C131.747 501.992 132.603 501.2 133.691 500.64C134.779 500.064 136.003 499.776 137.363 499.776C138.643 499.776 139.811 500.04 140.867 500.568C141.923 501.08 142.763 501.84 143.387 502.848C144.011 503.856 144.323 505.08 144.323 506.52C144.323 506.68 144.315 506.864 144.299 507.072C144.283 507.28 144.267 507.472 144.251 507.648H133.955V505.248H141.827L140.099 505.92C140.115 505.328 140.003 504.816 139.763 504.384C139.539 503.952 139.219 503.616 138.803 503.376C138.403 503.136 137.931 503.016 137.387 503.016C136.843 503.016 136.363 503.136 135.947 503.376C135.547 503.616 135.235 503.96 135.011 504.408C134.787 504.84 134.675 505.352 134.675 505.944V506.64C134.675 507.28 134.803 507.832 135.059 508.296C135.331 508.76 135.715 509.12 136.211 509.376C136.707 509.616 137.299 509.736 137.987 509.736C138.627 509.736 139.171 509.648 139.619 509.472C140.083 509.28 140.539 508.992 140.987 508.608L143.387 511.104C142.763 511.792 141.995 512.32 141.083 512.688C140.171 513.04 139.091 513.216 137.843 513.216ZM153.625 513V496.2H162.217C164.425 496.2 166.073 496.608 167.161 497.424C168.249 498.224 168.793 499.28 168.793 500.592C168.793 501.456 168.561 502.216 168.097 502.872C167.649 503.512 167.009 504.024 166.177 504.408C165.361 504.776 164.385 504.96 163.249 504.96L163.729 503.808C164.913 503.808 165.945 503.992 166.825 504.36C167.705 504.712 168.385 505.232 168.865 505.92C169.361 506.592 169.609 507.416 169.609 508.392C169.609 509.848 169.017 510.984 167.833 511.8C166.665 512.6 164.953 513 162.697 513H153.625ZM158.329 509.568H162.313C163.129 509.568 163.745 509.432 164.161 509.16C164.593 508.872 164.809 508.44 164.809 507.864C164.809 507.288 164.593 506.864 164.161 506.592C163.745 506.304 163.129 506.16 162.313 506.16H157.993V502.872H161.593C162.393 502.872 162.993 502.736 163.393 502.464C163.793 502.192 163.993 501.784 163.993 501.24C163.993 500.696 163.793 500.296 163.393 500.04C162.993 499.768 162.393 499.632 161.593 499.632H158.329V509.568ZM179.799 513V510.576L179.487 509.976V505.512C179.487 504.792 179.263 504.24 178.815 503.856C178.383 503.456 177.687 503.256 176.727 503.256C176.103 503.256 175.471 503.36 174.831 503.568C174.191 503.76 173.647 504.032 173.199 504.384L171.663 501.288C172.399 500.808 173.279 500.44 174.303 500.184C175.343 499.912 176.375 499.776 177.399 499.776C179.511 499.776 181.143 500.264 182.295 501.24C183.463 502.2 184.047 503.712 184.047 505.776V513H179.799ZM175.959 513.216C174.919 513.216 174.039 513.04 173.319 512.688C172.599 512.336 172.047 511.856 171.663 511.248C171.295 510.64 171.111 509.96 171.111 509.208C171.111 508.408 171.311 507.72 171.711 507.144C172.127 506.552 172.759 506.104 173.607 505.8C174.455 505.48 175.551 505.32 176.895 505.32H179.967V507.696H177.519C176.783 507.696 176.263 507.816 175.959 508.056C175.671 508.296 175.527 508.616 175.527 509.016C175.527 509.416 175.679 509.736 175.983 509.976C176.287 510.216 176.703 510.336 177.231 510.336C177.727 510.336 178.175 510.216 178.575 509.976C178.991 509.72 179.295 509.336 179.487 508.824L180.111 510.504C179.871 511.4 179.399 512.08 178.695 512.544C178.007 512.992 177.095 513.216 175.959 513.216ZM193.737 513.216C192.297 513.216 191.009 512.928 189.873 512.352C188.753 511.776 187.873 510.984 187.233 509.976C186.593 508.952 186.273 507.784 186.273 506.472C186.273 505.16 186.593 504 187.233 502.992C187.873 501.984 188.753 501.2 189.873 500.64C191.009 500.064 192.297 499.776 193.737 499.776C195.209 499.776 196.481 500.088 197.553 500.712C198.625 501.336 199.385 502.216 199.833 503.352L196.305 505.152C196.001 504.544 195.625 504.104 195.177 503.832C194.729 503.544 194.241 503.4 193.713 503.4C193.185 503.4 192.705 503.52 192.273 503.76C191.841 504 191.497 504.352 191.241 504.816C191.001 505.264 190.881 505.816 190.881 506.472C190.881 507.144 191.001 507.712 191.241 508.176C191.497 508.64 191.841 508.992 192.273 509.232C192.705 509.472 193.185 509.592 193.713 509.592C194.241 509.592 194.729 509.456 195.177 509.184C195.625 508.896 196.001 508.448 196.305 507.84L199.833 509.64C199.385 510.776 198.625 511.656 197.553 512.28C196.481 512.904 195.209 513.216 193.737 513.216ZM205.295 510.6L205.415 505.152L210.719 499.992H216.119L210.239 506.064L207.911 507.936L205.295 510.6ZM201.503 513V495.192H206.063V513H201.503ZM211.055 513L207.071 508.008L209.903 504.504L216.575 513H211.055Z" fill="#18191F"/>
<rect y="534" width="375" height="2" fill="#18191F"/>
<path d="M345 498L333 510" stroke="#18191F" stroke-width="3" stroke-linecap="round" stroke-linejoin="round"/>
<path d="M333 498L345 510" stroke="#18191F" stroke-width="3" stroke-linecap="round" stroke-linejoin="round"/>
<rect x="25" y="561" width="325" height="54" rx="15" fill="white" stroke="#18191F" stroke-width="2"/>
<g clip-path="url(#clip1_1147_8189)">
<path d="M60 597V595C60 593.939 59.5786 592.922 58.8284 592.172C58.0783 591.421 57.0609 591 56 591H48C46.9391 591 45.9217 591.421 45.1716 592.172C44.4214 592.922 44 593.939 44 595V597" stroke="#18191F" stroke-width="2" stroke-linecap="round" stroke-linejoin="round"/>
<path d="M52 587C54.2091 587 56 585.209 56 583C56 580.791 54.2091 579 52 579C49.7909 579 48 580.791 48 583C48 585.209 49.7909 587 52 587Z" stroke="#18191F" stroke-width="2" stroke-linecap="round" stroke-linejoin="round"/>
<path d="M80.116 587.642H87.676V589.427H80.116V587.642ZM80.305 594.173H88.873V596H78.205V581.3H88.579V583.127H80.305V594.173ZM105.902 584.765C106.798 584.765 107.589 584.94 108.275 585.29C108.961 585.64 109.493 586.172 109.871 586.886C110.263 587.6 110.459 588.503 110.459 589.595V596H108.443V589.826C108.443 588.748 108.191 587.936 107.687 587.39C107.183 586.844 106.476 586.571 105.566 586.571C104.894 586.571 104.306 586.711 103.802 586.991C103.298 587.271 102.906 587.684 102.626 588.23C102.36 588.776 102.227 589.455 102.227 590.267V596H100.211V589.826C100.211 588.748 99.9594 587.936 99.4554 587.39C98.9654 586.844 98.2584 586.571 97.3344 586.571C96.6764 586.571 96.0954 586.711 95.5914 586.991C95.0874 587.271 94.6954 587.684 94.4154 588.23C94.1354 588.776 93.9954 589.455 93.9954 590.267V596H91.9794V584.87H93.9114V587.831L93.5964 587.075C93.9464 586.347 94.4854 585.78 95.2134 585.374C95.9414 584.968 96.7884 584.765 97.7544 584.765C98.8184 584.765 99.7354 585.031 100.505 585.563C101.275 586.081 101.779 586.872 102.017 587.936L101.198 587.6C101.534 586.746 102.122 586.06 102.962 585.542C103.802 585.024 104.782 584.765 105.902 584.765ZM121.078 596V593.648L120.973 593.207V589.196C120.973 588.342 120.721 587.684 120.217 587.222C119.727 586.746 118.985 586.508 117.991 586.508C117.333 586.508 116.689 586.62 116.059 586.844C115.429 587.054 114.897 587.341 114.463 587.705L113.623 586.193C114.197 585.731 114.883 585.381 115.681 585.143C116.493 584.891 117.34 584.765 118.222 584.765C119.748 584.765 120.924 585.136 121.75 585.878C122.576 586.62 122.989 587.754 122.989 589.28V596H121.078ZM117.424 596.126C116.598 596.126 115.87 595.986 115.24 595.706C114.624 595.426 114.148 595.041 113.812 594.551C113.476 594.047 113.308 593.48 113.308 592.85C113.308 592.248 113.448 591.702 113.728 591.212C114.022 590.722 114.491 590.33 115.135 590.036C115.793 589.742 116.675 589.595 117.781 589.595H121.309V591.044H117.865C116.857 591.044 116.178 591.212 115.828 591.548C115.478 591.884 115.303 592.29 115.303 592.766C115.303 593.312 115.52 593.753 115.954 594.089C116.388 594.411 116.99 594.572 117.76 594.572C118.516 594.572 119.174 594.404 119.734 594.068C120.308 593.732 120.721 593.242 120.973 592.598L121.372 593.984C121.106 594.642 120.637 595.167 119.965 595.559C119.293 595.937 118.446 596.126 117.424 596.126ZM126.72 596V584.87H128.736V596H126.72ZM127.728 582.728C127.336 582.728 127.007 582.602 126.741 582.35C126.489 582.098 126.363 581.79 126.363 581.426C126.363 581.048 126.489 580.733 126.741 580.481C127.007 580.229 127.336 580.103 127.728 580.103C128.12 580.103 128.442 580.229 128.694 580.481C128.96 580.719 129.093 581.02 129.093 581.384C129.093 581.762 128.967 582.084 128.715 582.35C128.463 582.602 128.134 582.728 127.728 582.728ZM132.585 596V580.418H134.601V596H132.585ZM150.999 596V593.648L150.894 593.207V589.196C150.894 588.342 150.642 587.684 150.138 587.222C149.648 586.746 148.906 586.508 147.912 586.508C147.254 586.508 146.61 586.62 145.98 586.844C145.35 587.054 144.818 587.341 144.384 587.705L143.544 586.193C144.118 585.731 144.804 585.381 145.602 585.143C146.414 584.891 147.261 584.765 148.143 584.765C149.669 584.765 150.845 585.136 151.671 585.878C152.497 586.62 152.91 587.754 152.91 589.28V596H150.999ZM147.345 596.126C146.519 596.126 145.791 595.986 145.161 595.706C144.545 595.426 144.069 595.041 143.733 594.551C143.397 594.047 143.229 593.48 143.229 592.85C143.229 592.248 143.369 591.702 143.649 591.212C143.943 590.722 144.412 590.33 145.056 590.036C145.714 589.742 146.596 589.595 147.702 589.595H151.23V591.044H147.786C146.778 591.044 146.099 591.212 145.749 591.548C145.399 591.884 145.224 592.29 145.224 592.766C145.224 593.312 145.441 593.753 145.875 594.089C146.309 594.411 146.911 594.572 147.681 594.572C148.437 594.572 149.095 594.404 149.655 594.068C150.229 593.732 150.642 593.242 150.894 592.598L151.293 593.984C151.027 594.642 150.558 595.167 149.886 595.559C149.214 595.937 148.367 596.126 147.345 596.126ZM161.239 596.126C160.161 596.126 159.195 595.888 158.341 595.412C157.501 594.936 156.836 594.271 156.346 593.417C155.856 592.563 155.611 591.569 155.611 590.435C155.611 589.301 155.856 588.314 156.346 587.474C156.836 586.62 157.501 585.955 158.341 585.479C159.195 585.003 160.161 584.765 161.239 584.765C162.177 584.765 163.024 584.975 163.78 585.395C164.536 585.815 165.138 586.445 165.586 587.285C166.048 588.125 166.279 589.175 166.279 590.435C166.279 591.695 166.055 592.745 165.607 593.585C165.173 594.425 164.578 595.062 163.822 595.496C163.066 595.916 162.205 596.126 161.239 596.126ZM161.407 594.362C162.107 594.362 162.737 594.201 163.297 593.879C163.871 593.557 164.319 593.102 164.641 592.514C164.977 591.912 165.145 591.219 165.145 590.435C165.145 589.637 164.977 588.951 164.641 588.377C164.319 587.789 163.871 587.334 163.297 587.012C162.737 586.69 162.107 586.529 161.407 586.529C160.693 586.529 160.056 586.69 159.496 587.012C158.936 587.334 158.488 587.789 158.152 588.377C157.816 588.951 157.648 589.637 157.648 590.435C157.648 591.219 157.816 591.912 158.152 592.514C158.488 593.102 158.936 593.557 159.496 593.879C160.056 594.201 160.693 594.362 161.407 594.362ZM165.208 596V592.997L165.334 590.414L165.124 587.831V580.418H167.14V596H165.208ZM175.554 596.126C174.476 596.126 173.51 595.888 172.656 595.412C171.816 594.936 171.151 594.271 170.661 593.417C170.171 592.563 169.926 591.569 169.926 590.435C169.926 589.301 170.171 588.314 170.661 587.474C171.151 586.62 171.816 585.955 172.656 585.479C173.51 585.003 174.476 584.765 175.554 584.765C176.492 584.765 177.339 584.975 178.095 585.395C178.851 585.815 179.453 586.445 179.901 587.285C180.363 588.125 180.594 589.175 180.594 590.435C180.594 591.695 180.37 592.745 179.922 593.585C179.488 594.425 178.893 595.062 178.137 595.496C177.381 595.916 176.52 596.126 175.554 596.126ZM175.722 594.362C176.422 594.362 177.052 594.201 177.612 593.879C178.186 593.557 178.634 593.102 178.956 592.514C179.292 591.912 179.46 591.219 179.46 590.435C179.46 589.637 179.292 588.951 178.956 588.377C178.634 587.789 178.186 587.334 177.612 587.012C177.052 586.69 176.422 586.529 175.722 586.529C175.008 586.529 174.371 586.69 173.811 587.012C173.251 587.334 172.803 587.789 172.467 588.377C172.131 588.951 171.963 589.637 171.963 590.435C171.963 591.219 172.131 591.912 172.467 592.514C172.803 593.102 173.251 593.557 173.811 593.879C174.371 594.201 175.008 594.362 175.722 594.362ZM179.523 596V592.997L179.649 590.414L179.439 587.831V580.418H181.455V596H179.523ZM185.269 596V584.87H187.201V587.894L187.012 587.138C187.32 586.368 187.838 585.78 188.566 585.374C189.294 584.968 190.19 584.765 191.254 584.765V586.718C191.17 586.704 191.086 586.697 191.002 586.697C190.932 586.697 190.862 586.697 190.792 586.697C189.714 586.697 188.86 587.019 188.23 587.663C187.6 588.307 187.285 589.238 187.285 590.456V596H185.269ZM198.593 596.126C197.403 596.126 196.353 595.881 195.443 595.391C194.547 594.901 193.847 594.229 193.343 593.375C192.853 592.521 192.608 591.541 192.608 590.435C192.608 589.329 192.846 588.349 193.322 587.495C193.812 586.641 194.477 585.976 195.317 585.5C196.171 585.01 197.13 584.765 198.194 584.765C199.272 584.765 200.224 585.003 201.05 585.479C201.876 585.955 202.52 586.627 202.982 587.495C203.458 588.349 203.696 589.35 203.696 590.498C203.696 590.582 203.689 590.68 203.675 590.792C203.675 590.904 203.668 591.009 203.654 591.107H194.183V589.658H202.604L201.785 590.162C201.799 589.448 201.652 588.811 201.344 588.251C201.036 587.691 200.609 587.257 200.063 586.949C199.531 586.627 198.908 586.466 198.194 586.466C197.494 586.466 196.871 586.627 196.325 586.949C195.779 587.257 195.352 587.698 195.044 588.272C194.736 588.832 194.582 589.476 194.582 590.204V590.54C194.582 591.282 194.75 591.947 195.086 592.535C195.436 593.109 195.919 593.557 196.535 593.879C197.151 594.201 197.858 594.362 198.656 594.362C199.314 594.362 199.909 594.25 200.441 594.026C200.987 593.802 201.463 593.466 201.869 593.018L202.982 594.32C202.478 594.908 201.848 595.356 201.092 595.664C200.35 595.972 199.517 596.126 198.593 596.126ZM209.687 596.126C208.763 596.126 207.881 596 207.041 595.748C206.215 595.496 205.564 595.188 205.088 594.824L205.928 593.228C206.404 593.55 206.992 593.823 207.692 594.047C208.392 594.271 209.106 594.383 209.834 594.383C210.772 594.383 211.444 594.25 211.85 593.984C212.27 593.718 212.48 593.347 212.48 592.871C212.48 592.521 212.354 592.248 212.102 592.052C211.85 591.856 211.514 591.709 211.094 591.611C210.688 591.513 210.233 591.429 209.729 591.359C209.225 591.275 208.721 591.177 208.217 591.065C207.713 590.939 207.251 590.771 206.831 590.561C206.411 590.337 206.075 590.036 205.823 589.658C205.571 589.266 205.445 588.748 205.445 588.104C205.445 587.432 205.634 586.844 206.012 586.34C206.39 585.836 206.922 585.451 207.608 585.185C208.308 584.905 209.134 584.765 210.086 584.765C210.814 584.765 211.549 584.856 212.291 585.038C213.047 585.206 213.663 585.451 214.139 585.773L213.278 587.369C212.774 587.033 212.249 586.802 211.703 586.676C211.157 586.55 210.611 586.487 210.065 586.487C209.183 586.487 208.525 586.634 208.091 586.928C207.657 587.208 207.44 587.572 207.44 588.02C207.44 588.398 207.566 588.692 207.818 588.902C208.084 589.098 208.42 589.252 208.826 589.364C209.246 589.476 209.708 589.574 210.212 589.658C210.716 589.728 211.22 589.826 211.724 589.952C212.228 590.064 212.683 590.225 213.089 590.435C213.509 590.645 213.845 590.939 214.097 591.317C214.363 591.695 214.496 592.199 214.496 592.829C214.496 593.501 214.3 594.082 213.908 594.572C213.516 595.062 212.963 595.447 212.249 595.727C211.535 595.993 210.681 596.126 209.687 596.126ZM220.207 596.126C219.283 596.126 218.401 596 217.561 595.748C216.735 595.496 216.084 595.188 215.608 594.824L216.448 593.228C216.924 593.55 217.512 593.823 218.212 594.047C218.912 594.271 219.626 594.383 220.354 594.383C221.292 594.383 221.964 594.25 222.37 593.984C222.79 593.718 223 593.347 223 592.871C223 592.521 222.874 592.248 222.622 592.052C222.37 591.856 222.034 591.709 221.614 591.611C221.208 591.513 220.753 591.429 220.249 591.359C219.745 591.275 219.241 591.177 218.737 591.065C218.233 590.939 217.771 590.771 217.351 590.561C216.931 590.337 216.595 590.036 216.343 589.658C216.091 589.266 215.965 588.748 215.965 588.104C215.965 587.432 216.154 586.844 216.532 586.34C216.91 585.836 217.442 585.451 218.128 585.185C218.828 584.905 219.654 584.765 220.606 584.765C221.334 584.765 222.069 584.856 222.811 585.038C223.567 585.206 224.183 585.451 224.659 585.773L223.798 587.369C223.294 587.033 222.769 586.802 222.223 586.676C221.677 586.55 221.131 586.487 220.585 586.487C219.703 586.487 219.045 586.634 218.611 586.928C218.177 587.208 217.96 587.572 217.96 588.02C217.96 588.398 218.086 588.692 218.338 588.902C218.604 589.098 218.94 589.252 219.346 589.364C219.766 589.476 220.228 589.574 220.732 589.658C221.236 589.728 221.74 589.826 222.244 589.952C222.748 590.064 223.203 590.225 223.609 590.435C224.029 590.645 224.365 590.939 224.617 591.317C224.883 591.695 225.016 592.199 225.016 592.829C225.016 593.501 224.82 594.082 224.428 594.572C224.036 595.062 223.483 595.447 222.769 595.727C222.055 595.993 221.201 596.126 220.207 596.126Z" fill="#18191F"/>
</g>
<rect x="25" y="641" width="325" height="54" rx="15" fill="white" stroke="#18191F" stroke-width="2"/>
<g clip-path="url(#clip2_1147_8189)">
<path d="M59 667H45C43.8954 667 43 667.895 43 669V676C43 677.105 43.8954 678 45 678H59C60.1046 678 61 677.105 61 676V669C61 667.895 60.1046 667 59 667Z" stroke="#18191F" stroke-width="2" stroke-linecap="round" stroke-linejoin="round"/>
<path d="M47 667V663C47 661.674 47.5268 660.402 48.4645 659.464C49.4021 658.527 50.6739 658 52 658C53.3261 658 54.5979 658.527 55.5355 659.464C56.4732 660.402 57 661.674 57 663V667" stroke="#18191F" stroke-width="2" stroke-linecap="round" stroke-linejoin="round"/>
<path d="M85.387 676.714C84.239 676.714 83.161 676.497 82.153 676.063C81.145 675.643 80.256 675.055 79.486 674.299C78.73 673.529 78.135 672.64 77.701 671.632C77.281 670.624 77.071 669.546 77.071 668.398C77.071 667.236 77.281 666.158 77.701 665.164C78.135 664.156 78.73 663.274 79.486 662.518C80.256 661.748 81.145 661.153 82.153 660.733C83.161 660.299 84.239 660.082 85.387 660.082C86.549 660.082 87.627 660.299 88.621 660.733C89.629 661.153 90.511 661.748 91.267 662.518C92.037 663.274 92.632 664.156 93.052 665.164C93.486 666.158 93.703 667.236 93.703 668.398C93.703 669.546 93.486 670.624 93.052 671.632C92.632 672.64 92.037 673.529 91.267 674.299C90.511 675.055 89.629 675.643 88.621 676.063C87.627 676.497 86.549 676.714 85.387 676.714ZM104.152 676.714C103.004 676.714 101.926 676.497 100.918 676.063C99.9096 675.643 99.0206 675.055 98.2506 674.299C97.4946 673.529 96.8996 672.64 96.4656 671.632C96.0456 670.624 95.8356 669.546 95.8356 668.398C95.8356 667.236 96.0456 666.158 96.4656 665.164C96.8996 664.156 97.4946 663.274 98.2506 662.518C99.0206 661.748 99.9096 661.153 100.918 660.733C101.926 660.299 103.004 660.082 104.152 660.082C105.314 660.082 106.392 660.299 107.386 660.733C108.394 661.153 109.276 661.748 110.032 662.518C110.802 663.274 111.397 664.156 111.817 665.164C112.251 666.158 112.468 667.236 112.468 668.398C112.468 669.546 112.251 670.624 111.817 671.632C111.397 672.64 110.802 673.529 110.032 674.299C109.276 675.055 108.394 675.643 107.386 676.063C106.392 676.497 105.314 676.714 104.152 676.714ZM122.916 676.714C121.768 676.714 120.69 676.497 119.682 676.063C118.674 675.643 117.785 675.055 117.015 674.299C116.259 673.529 115.664 672.64 115.23 671.632C114.81 670.624 114.6 669.546 114.6 668.398C114.6 667.236 114.81 666.158 115.23 665.164C115.664 664.156 116.259 663.274 117.015 662.518C117.785 661.748 118.674 661.153 119.682 660.733C120.69 660.299 121.768 660.082 122.916 660.082C124.078 660.082 125.156 660.299 126.15 660.733C127.158 661.153 128.04 661.748 128.796 662.518C129.566 663.274 130.161 664.156 130.581 665.164C131.015 666.158 131.232 667.236 131.232 668.398C131.232 669.546 131.015 670.624 130.581 671.632C130.161 672.64 129.566 673.529 128.796 674.299C128.04 675.055 127.158 675.643 126.15 676.063C125.156 676.497 124.078 676.714 122.916 676.714ZM141.681 676.714C140.533 676.714 139.455 676.497 138.447 676.063C137.439 675.643 136.55 675.055 135.78 674.299C135.024 673.529 134.429 672.64 133.995 671.632C133.575 670.624 133.365 669.546 133.365 668.398C133.365 667.236 133.575 666.158 133.995 665.164C134.429 664.156 135.024 663.274 135.78 662.518C136.55 661.748 137.439 661.153 138.447 660.733C139.455 660.299 140.533 660.082 141.681 660.082C142.843 660.082 143.921 660.299 144.915 660.733C145.923 661.153 146.805 661.748 147.561 662.518C148.331 663.274 148.926 664.156 149.346 665.164C149.78 666.158 149.997 667.236 149.997 668.398C149.997 669.546 149.78 670.624 149.346 671.632C148.926 672.64 148.331 673.529 147.561 674.299C146.805 675.055 145.923 675.643 144.915 676.063C143.921 676.497 142.843 676.714 141.681 676.714ZM160.446 676.714C159.298 676.714 158.22 676.497 157.212 676.063C156.204 675.643 155.315 675.055 154.545 674.299C153.789 673.529 153.194 672.64 152.76 671.632C152.34 670.624 152.13 669.546 152.13 668.398C152.13 667.236 152.34 666.158 152.76 665.164C153.194 664.156 153.789 663.274 154.545 662.518C155.315 661.748 156.204 661.153 157.212 660.733C158.22 660.299 159.298 660.082 160.446 660.082C161.608 660.082 162.686 660.299 163.68 660.733C164.688 661.153 165.57 661.748 166.326 662.518C167.096 663.274 167.691 664.156 168.111 665.164C168.545 666.158 168.762 667.236 168.762 668.398C168.762 669.546 168.545 670.624 168.111 671.632C167.691 672.64 167.096 673.529 166.326 674.299C165.57 675.055 164.688 675.643 163.68 676.063C162.686 676.497 161.608 676.714 160.446 676.714ZM179.21 676.714C178.062 676.714 176.984 676.497 175.976 676.063C174.968 675.643 174.079 675.055 173.309 674.299C172.553 673.529 171.958 672.64 171.524 671.632C171.104 670.624 170.894 669.546 170.894 668.398C170.894 667.236 171.104 666.158 171.524 665.164C171.958 664.156 172.553 663.274 173.309 662.518C174.079 661.748 174.968 661.153 175.976 660.733C176.984 660.299 178.062 660.082 179.21 660.082C180.372 660.082 181.45 660.299 182.444 660.733C183.452 661.153 184.334 661.748 185.09 662.518C185.86 663.274 186.455 664.156 186.875 665.164C187.309 666.158 187.526 667.236 187.526 668.398C187.526 669.546 187.309 670.624 186.875 671.632C186.455 672.64 185.86 673.529 185.09 674.299C184.334 675.055 183.452 675.643 182.444 676.063C181.45 676.497 180.372 676.714 179.21 676.714ZM197.975 676.714C196.827 676.714 195.749 676.497 194.741 676.063C193.733 675.643 192.844 675.055 192.074 674.299C191.318 673.529 190.723 672.64 190.289 671.632C189.869 670.624 189.659 669.546 189.659 668.398C189.659 667.236 189.869 666.158 190.289 665.164C190.723 664.156 191.318 663.274 192.074 662.518C192.844 661.748 193.733 661.153 194.741 660.733C195.749 660.299 196.827 660.082 197.975 660.082C199.137 660.082 200.215 660.299 201.209 660.733C202.217 661.153 203.099 661.748 203.855 662.518C204.625 663.274 205.22 664.156 205.64 665.164C206.074 666.158 206.291 667.236 206.291 668.398C206.291 669.546 206.074 670.624 205.64 671.632C205.22 672.64 204.625 673.529 203.855 674.299C203.099 675.055 202.217 675.643 201.209 676.063C200.215 676.497 199.137 676.714 197.975 676.714Z" fill="#18191F"/>
</g>
<rect x="24" y="720" width="327" height="60" rx="16" fill="#18191F"/>
<g clip-path="url(#clip3_1147_8189)">
<path d="M130.122 758.294C128.96 758.294 127.882 758.112 126.888 757.748C125.908 757.37 125.054 756.838 124.326 756.152C123.612 755.466 123.052 754.661 122.646 753.737C122.24 752.799 122.037 751.77 122.037 750.65C122.037 749.53 122.24 748.508 122.646 747.584C123.052 746.646 123.612 745.834 124.326 745.148C125.054 744.462 125.908 743.937 126.888 743.573C127.882 743.195 128.96 743.006 130.122 743.006C131.48 743.006 132.691 743.244 133.755 743.72C134.833 744.196 135.729 744.882 136.443 745.778L133.797 748.172C133.321 747.612 132.796 747.185 132.222 746.891C131.662 746.597 131.032 746.45 130.332 746.45C129.73 746.45 129.177 746.548 128.673 746.744C128.169 746.94 127.735 747.227 127.371 747.605C127.021 747.969 126.741 748.41 126.531 748.928C126.335 749.446 126.237 750.02 126.237 750.65C126.237 751.28 126.335 751.854 126.531 752.372C126.741 752.89 127.021 753.338 127.371 753.716C127.735 754.08 128.169 754.36 128.673 754.556C129.177 754.752 129.73 754.85 130.332 754.85C131.032 754.85 131.662 754.703 132.222 754.409C132.796 754.115 133.321 753.688 133.797 753.128L136.443 755.522C135.729 756.404 134.833 757.09 133.755 757.58C132.691 758.056 131.48 758.294 130.122 758.294ZM143.451 758.189C142.205 758.189 141.099 757.937 140.133 757.433C139.167 756.929 138.404 756.236 137.844 755.354C137.298 754.458 137.025 753.436 137.025 752.288C137.025 751.14 137.298 750.125 137.844 749.243C138.404 748.361 139.167 747.675 140.133 747.185C141.099 746.681 142.205 746.429 143.451 746.429C144.697 746.429 145.803 746.681 146.769 747.185C147.749 747.675 148.512 748.361 149.058 749.243C149.604 750.125 149.877 751.14 149.877 752.288C149.877 753.436 149.604 754.458 149.058 755.354C148.512 756.236 147.749 756.929 146.769 757.433C145.803 757.937 144.697 758.189 143.451 758.189ZM143.451 755.018C143.913 755.018 144.319 754.913 144.669 754.703C145.033 754.493 145.32 754.185 145.53 753.779C145.74 753.359 145.845 752.862 145.845 752.288C145.845 751.714 145.74 751.231 145.53 750.839C145.32 750.433 145.033 750.125 144.669 749.915C144.319 749.705 143.913 749.6 143.451 749.6C143.003 749.6 142.597 749.705 142.233 749.915C141.883 750.125 141.596 750.433 141.372 750.839C141.162 751.231 141.057 751.714 141.057 752.288C141.057 752.862 141.162 753.359 141.372 753.779C141.596 754.185 141.883 754.493 142.233 754.703C142.597 754.913 143.003 755.018 143.451 755.018ZM159.138 746.429C160.02 746.429 160.818 746.611 161.532 746.975C162.246 747.325 162.806 747.871 163.212 748.613C163.632 749.355 163.842 750.314 163.842 751.49V758H159.852V752.141C159.852 751.329 159.684 750.741 159.348 750.377C159.026 749.999 158.571 749.81 157.983 749.81C157.563 749.81 157.178 749.908 156.828 750.104C156.478 750.286 156.205 750.573 156.009 750.965C155.813 751.357 155.715 751.868 155.715 752.498V758H151.725V746.618H155.526V749.852L154.791 748.907C155.225 748.081 155.82 747.465 156.576 747.059C157.332 746.639 158.186 746.429 159.138 746.429ZM171.429 758.189C169.973 758.189 168.839 757.832 168.027 757.118C167.215 756.39 166.809 755.298 166.809 753.842V744.077H170.799V753.8C170.799 754.206 170.911 754.528 171.135 754.766C171.359 754.99 171.646 755.102 171.996 755.102C172.472 755.102 172.878 754.983 173.214 754.745L174.201 757.538C173.865 757.762 173.452 757.923 172.962 758.021C172.472 758.133 171.961 758.189 171.429 758.189ZM165.15 750.02V747.038H173.403V750.02H165.15ZM175.739 758V746.618H179.729V758H175.739ZM177.734 745.358C177.006 745.358 176.418 745.155 175.97 744.749C175.522 744.343 175.298 743.839 175.298 743.237C175.298 742.635 175.522 742.131 175.97 741.725C176.418 741.319 177.006 741.116 177.734 741.116C178.462 741.116 179.05 741.312 179.498 741.704C179.946 742.082 180.17 742.572 180.17 743.174C180.17 743.804 179.946 744.329 179.498 744.749C179.064 745.155 178.476 745.358 177.734 745.358ZM189.736 746.429C190.618 746.429 191.416 746.611 192.13 746.975C192.844 747.325 193.404 747.871 193.81 748.613C194.23 749.355 194.44 750.314 194.44 751.49V758H190.45V752.141C190.45 751.329 190.282 750.741 189.946 750.377C189.624 749.999 189.169 749.81 188.581 749.81C188.161 749.81 187.776 749.908 187.426 750.104C187.076 750.286 186.803 750.573 186.607 750.965C186.411 751.357 186.313 751.868 186.313 752.498V758H182.323V746.618H186.124V749.852L185.389 748.907C185.823 748.081 186.418 747.465 187.174 747.059C187.93 746.639 188.784 746.429 189.736 746.429ZM201.733 758.189C200.809 758.189 199.976 758.007 199.234 757.643C198.506 757.279 197.932 756.712 197.512 755.942C197.106 755.158 196.903 754.171 196.903 752.981V746.618H200.893V752.33C200.893 753.212 201.054 753.842 201.376 754.22C201.712 754.598 202.181 754.787 202.783 754.787C203.175 754.787 203.532 754.696 203.854 754.514C204.176 754.332 204.435 754.045 204.631 753.653C204.827 753.247 204.925 752.729 204.925 752.099V746.618H208.915V758H205.114V754.787L205.849 755.69C205.457 756.53 204.89 757.16 204.148 757.58C203.406 757.986 202.601 758.189 201.733 758.189ZM217.449 758.189C216.105 758.189 214.929 757.937 213.921 757.433C212.927 756.915 212.15 756.215 211.59 755.333C211.044 754.437 210.771 753.422 210.771 752.288C210.771 751.154 211.037 750.146 211.569 749.264C212.115 748.368 212.864 747.675 213.816 747.185C214.768 746.681 215.839 746.429 217.029 746.429C218.149 746.429 219.171 746.66 220.095 747.122C221.019 747.57 221.754 748.235 222.3 749.117C222.846 749.999 223.119 751.07 223.119 752.33C223.119 752.47 223.112 752.631 223.098 752.813C223.084 752.995 223.07 753.163 223.056 753.317H214.047V751.217H220.935L219.423 751.805C219.437 751.287 219.339 750.839 219.129 750.461C218.933 750.083 218.653 749.789 218.289 749.579C217.939 749.369 217.526 749.264 217.05 749.264C216.574 749.264 216.154 749.369 215.79 749.579C215.44 749.789 215.167 750.09 214.971 750.482C214.775 750.86 214.677 751.308 214.677 751.826V752.435C214.677 752.995 214.789 753.478 215.013 753.884C215.251 754.29 215.587 754.605 216.021 754.829C216.455 755.039 216.973 755.144 217.575 755.144C218.135 755.144 218.611 755.067 219.003 754.913C219.409 754.745 219.808 754.493 220.2 754.157L222.3 756.341C221.754 756.943 221.082 757.405 220.284 757.727C219.486 758.035 218.541 758.189 217.449 758.189Z" fill="white"/>
<path d="M240 756L246 750L240 744" stroke="white" stroke-width="3" stroke-linecap="round" stroke-linejoin="round"/>
</g>
</g>
</g>
<defs>
<filter id="filter0_d_1147_8189" x="0" y="466" width="375" height="346" filterUnits="userSpaceOnUse" color-interpolation-filters="sRGB">
<feFlood flood-opacity="0" result="BackgroundImageFix"/>
<feColorMatrix in="SourceAlpha" type="matrix" values="0 0 0 0 0 0 0 0 0 0 0 0 0 0 0 0 0 0 127 0" result="hardAlpha"/>
<feOffset dy="-6"/>
<feColorMatrix type="matrix" values="0 0 0 0 0.0941176 0 0 0 0 0.0980392 0 0 0 0 0.121569 0 0 0 1 0"/>
<feBlend mode="normal" in2="BackgroundImageFix" result="effect1_dropShadow_1147_8189"/>
<feBlend mode="normal" in="SourceGraphic" in2="effect1_dropShadow_1147_8189" result="shape"/>
</filter>
<clipPath id="clip0_1147_8189">
<rect width="375" height="812" fill="white"/>
</clipPath>
<clipPath id="clip1_1147_8189">
<rect width="287" height="28" fill="white" transform="translate(40 574)"/>
</clipPath>
<clipPath id="clip2_1147_8189">
<rect width="287" height="28" fill="white" transform="translate(40 654)"/>
</clipPath>
<clipPath id="clip3_1147_8189">
<rect width="133" height="28" fill="white" transform="translate(121 736)"/>
</clipPath>
</defs>
</svg>
